# xmcd
#
# Track frame offsets:
#	150
#	13467
#	30513
#	47824
#	69938
#	83239
#	97923
#	125811
#	135957
#	149017
#	169517
#	191536
#
# Disc length: 3456 seconds
#
# Revision: 0
# Processed by: cddbd v1.5.1PL0 Copyright (c) Steve Scherf et al.
# Submitted via: dBpowerAMP V4.0
#
DISCID=a10d7e0c
DTITLE=Mama's Boys - Chicken and Waffles
DYEAR=1900
DGENRE=Blues
TTITLE0=You'd Better Be Sure
TTITLE1=Don't Cry Mama
TTITLE2=Coming Home
TTITLE3=Too Tight
TTITLE4=Shake 'Em On Down
TTITLE5=Chicken and Waffles
TTITLE6=Something To Remember You By
TTITLE7=Come Back Baby
TTITLE8=Drink
TTITLE9=One Day
TTITLE10=Baby Boy's Boogie
TTITLE11=Blues For Late Summer
EXTD=
EXTT0=
EXTT1=
EXTT2=
EXTT3=
EXTT4=
EXTT5=
EXTT6=
EXTT7=
EXTT8=
EXTT9=
EXTT10=
EXTT11=
PLAYORDER=
